<svg xmlns="http://www.w3.org/2000/svg" viewBox="0 0 48 48"><path fill="#3DDC84" d="M16.2 10.4l-2.2-3.8a.8.8 0 011.4-.8l2.3 4A14.8 14.8 0 0124 8.8c2.9 0 5.6.7 8 2l2.3-4a.8.8 0 011.4.8l-2.2 3.8A14.9 14.9 0 0138.8 22H9.2a14.9 14.9 0 017-11.6z"/><circle cx="17.6" cy="16.4" r="1.4" fill="#fff"/><circle cx="30.4" cy="16.4" r="1.4" fill="#fff"/><path fill="#3DDC84" d="M9.2 24h29.6v11.2a3.2 3.2 0 01-3.2 3.2H12.4a3.2 3.2 0 01-3.2-3.2V24z"/><path fill="#3DDC84" d="M6.4 22.4a2 2 0 012 2v10.4a2 2 0 01-4 0V24.4a2 2 0 012-2zm35.2 0a2 2 0 012 2v10.4a2 2 0 01-4 0V24.4a2 2 0 012-2zM15.2 38.8a2 2 0 012 2V42a2 2 0 01-4 0v-1.2a2 2 0 012-2zm17.6 0a2 2 0 012 2V42a2 2 0 01-4 0v-1.2a2 2 0 012-2z"/></svg>
